<svg id="Capa_1" data-name="Capa 1" xmlns="http://www.w3.org/2000/svg" viewBox="0 0 100 100"><defs><style>.cls-1{fill:#73d8e8;}.cls-2{fill:none;stroke:#000;stroke-linecap:round;stroke-linejoin:round;stroke-width:3px;}</style></defs><path class="cls-1" d="M95.34,84.92c-.11-.25-.25-.48-.38-.72a66.27,66.27,0,0,0-4.9-7c-.33-.45-.67-.89-1-1.33s-.73-1-1.1-1.46-.89-1.16-1.31-1.74c-.1-.13-.2-.27-.29-.41v0l0-.23c.07-.22.16-.45.26-.69.47-1,1-2,1.54-2.91.27-.48.53-1,.79-1.46,5.7-10.65,8.13-24.78,3.76-36.36a25.32,25.32,0,0,0-1.11-2.48C80.71,6.52,49.33-.13,29.21,11.87,20.39,17.13,13.08,26,11,36.1c-2.5,12.39,0,27.09,9.62,36C33.86,84.36,51.79,86.77,68.9,83.7c.3,0,3.89-.68,6.41-1.21,5.3,2,10.57,3.74,16,5.27a6.25,6.25,0,0,0,2.22.34,2.15,2.15,0,0,0,2-2.46A3.56,3.56,0,0,0,95.34,84.92Z"/><path class="cls-2" d="M52.87,73.3S78,57.63,75,41.22s-21.89-12.7-27.45-3S39.71,56.15,45.18,57s3.86-23.16-10-26.87c-12.89-3.43-31.95,15.72-7,36.29C48.27,82.93,75.79,91.34,85.81,94a1.48,1.48,0,0,0,1.59-2.28l-8.26-11.8S98,65.73,87.72,37.46C78.46,12,39.94,4,17,23.39-6.93,43.62,1.69,95.26,55.89,91.08"/></svg>